<?xml version="1.0" encoding="UTF-8"?>
<!DOCTYPE svg PUBLIC "-//W3C//DTD SVG 1.1//EN" "http://www.w3.org/Graphics/SVG/1.1/DTD/svg11.dtd">
<!-- Creator: CorelDRAW 2019 (64-Bit) -->
<svg xmlns="http://www.w3.org/2000/svg" xml:space="preserve" width="1.77166in" height="1.77166in" version="1.1" style="shape-rendering:geometricPrecision; text-rendering:geometricPrecision; image-rendering:optimizeQuality; fill-rule:evenodd; clip-rule:evenodd"
viewBox="0 0 177.166 177.166"
 xmlns:xlink="http://www.w3.org/1999/xlink"
 xmlns:xodm="http://www.corel.com/coreldraw/odm/2003">
 <defs>
  <style type="text/css">
   <![CDATA[
    .str0 {stroke:#F8FAF7;stroke-width:0.694;stroke-miterlimit:2.61313}
    .fil0 {fill:#3AA6A0}
    .fil1 {fill:#F8FAF7}
   ]]>
  </style>
 </defs>
 <g id="Layer_x0020_1">
  <metadata id="CorelCorpID_0Corel-Layer"/>
  <g id="_2556125342480">
   <rect class="fil0" x="-0.299" y="0.15" width="177.165" height="177.165" rx="1968.504" ry="1968.504"/>
   <circle class="fil1" cx="88.192" cy="52.996" r="13.635"/>
   <path class="fil1 str0" d="M45.261 67.848c0.07,-9.361 0.104,-14.042 0.104,-14.042 24.03,5.836 38.231,19.759 42.605,41.771 0.209,28.334 0.314,42.501 0.314,42.501 -4.271,0.017 -6.406,0.026 -6.406,0.026 -0.001,-12.985 -0.002,-19.477 -0.002,-19.477 -0.056,-19.22 -9.014,-32.97 -26.875,-41.249 -6.667,-1.812 -9.913,-4.989 -9.74,-9.53z"/>
   <path class="fil1 str0" d="M131.306 67.848c-0.07,-9.361 -0.104,-14.042 -0.104,-14.042 -24.03,5.836 -38.231,19.759 -42.605,41.771 -0.209,28.334 -0.314,42.501 -0.314,42.501 4.271,0.017 6.406,0.026 6.406,0.026 0.001,-12.985 0.002,-19.477 0.002,-19.477 0.056,-19.22 9.014,-32.97 26.875,-41.249 6.667,-1.812 9.913,-4.989 9.74,-9.53z"/>
  </g>
 </g>
</svg>
